<mxfile host="app.diagrams.net" modified="2023-06-18T03:11:47.501Z" agent="Mozilla/5.0 (Macintosh; Intel Mac OS X 10_15_7) AppleWebKit/537.36 (KHTML, like Gecko) Chrome/114.0.0.0 Safari/537.36" version="21.4.0" etag="l6m0VMUK8dtmVNv7n3e-" type="github">
  <diagram name="Page-1" id="UzF_DvmqZbWdhJEzzj99">
    <mxGraphModel>
      <root>
        <mxCell id="0" />
        <mxCell id="1" parent="0" />
      </root>
    </mxGraphModel>
  </diagram>
</mxfile>
